<?xml version="1.0" encoding="UTF-8" standalone="no"?>
<!-- Created with Inkscape (http://www.inkscape.org/) -->

<svg
   xmlns:dc="http://purl.org/dc/elements/1.1/"
   xmlns:cc="http://creativecommons.org/ns#"
   xmlns:rdf="http://www.w3.org/1999/02/22-rdf-syntax-ns#"
   xmlns:svg="http://www.w3.org/2000/svg"
   xmlns="http://www.w3.org/2000/svg"
   xmlns:sodipodi="http://sodipodi.sourceforge.net/DTD/sodipodi-0.dtd"
   xmlns:inkscape="http://www.inkscape.org/namespaces/inkscape"
   width="210mm"
   height="297mm"
   id="svg5122"
   version="1.1"
   inkscape:version="0.48.4 r9939"
   sodipodi:docname="Nouveau document 17">
  <defs
     id="defs3" />
  <sodipodi:namedview
     inkscape:document-units="mm"
     id="base"
     pagecolor="#ffffff"
     bordercolor="#666666"
     borderopacity="1.0"
     inkscape:pageopacity="0.0"
     inkscape:pageshadow="2"
     inkscape:zoom="0.35"
     inkscape:cx="-141.42857"
     inkscape:cy="520"
     inkscape:current-layer="layer1"
     showgrid="false"
     inkscape:window-width="1366"
     inkscape:window-height="706"
     inkscape:window-x="-8"
     inkscape:window-y="-8"
     inkscape:window-maximized="1" />
  <metadata
     id="metadata4">
    <rdf:RDF>
      <cc:Work
         rdf:about="">
        <dc:format>image/svg+xml</dc:format>
        <dc:type
           rdf:resource="http://purl.org/dc/dcmitype/StillImage" />
        <dc:title></dc:title>
      </cc:Work>
    </rdf:RDF>
  </metadata>
  <g
     inkscape:label="Layer 1"
     inkscape:groupmode="layer"
     id="layer1">
    <path
       style="fill:none;stroke:#000000;stroke-width:7.08661417;stroke-linecap:butt;stroke-linejoin:miter;stroke-miterlimit:4;stroke-opacity:1;stroke-dasharray:none"
       d="m 92.275107,512.40398 18.361323,-22.08621 7.76824,22.08621 13.41788,-19.25464 6.35583,19.25464 15.53648,-18.12201 7.06205,16.98938 14.83028,-18.68833 9.18067,19.82096 15.53646,-18.12201 7.76824,18.12201 12.00547,-15.85676 8.47445,15.29044"
       id="path5039"
       inkscape:connector-curvature="0" />
    <path
       style="fill:none;stroke:#000000;stroke-width:7.08661417;stroke-linecap:butt;stroke-linejoin:miter;stroke-miterlimit:4;stroke-opacity:1;stroke-dasharray:none"
       d="m 228.57248,512.40398 18.36131,-22.08621 7.76824,22.08621 13.41788,-19.25464 6.35584,19.25464 15.53648,-18.12201 7.06204,16.98938 14.83027,-18.68833 9.18065,19.82096 15.5365,-18.12201 7.76824,18.12201 12.00547,-15.85676 8.47446,15.29044"
       id="path5043"
       inkscape:connector-curvature="0" />
    <path
       inkscape:connector-curvature="0"
       id="path5045"
       d="m 364.16364,512.40398 18.3613,-22.08621 7.76825,22.08621 13.41788,-19.25464 6.35583,19.25464 15.53649,-18.12201 7.06204,16.98938 14.83029,-18.68833 9.18065,19.82096 15.53649,-18.12201 7.76824,18.12201 12.00546,-15.85676 8.47446,15.29044"
       style="fill:none;stroke:#000000;stroke-width:7.08661417;stroke-linecap:butt;stroke-linejoin:miter;stroke-miterlimit:4;stroke-opacity:1;stroke-dasharray:none" />
    <path
       inkscape:connector-curvature="0"
       id="path5047"
       d="m 499.57423,511.83479 18.3613,-22.08619 7.76824,22.08619 13.41788,-19.25462 6.35583,19.25462 15.53648,-18.122 7.06205,16.98938 14.83029,-18.68832 9.18065,19.82094 15.53648,-18.122 7.76825,18.122 12.00547,-15.85674 8.47445,15.29044"
       style="fill:none;stroke:#000000;stroke-width:7.08661417;stroke-linecap:butt;stroke-linejoin:miter;stroke-miterlimit:4;stroke-opacity:1;stroke-dasharray:none" />
  </g>
</svg>
